<?xml version="1.0" encoding="UTF-8"?>
<svg id="Layer_1" xmlns="http://www.w3.org/2000/svg" version="1.1" viewBox="0 0 485.33 172.06">
  <!-- Generator: Adobe Illustrator 29.8.4, SVG Export Plug-In . SVG Version: 2.1.1 Build 6)  -->
  <defs>
    <style>
      .st0 {
        fill: #222c38;
      }

      .st1 {
        fill: #f1efec;
      }

      .st2 {
        fill: #55bf5d;
      }

      .st3 {
        isolation: isolate;
      }
    </style>
  </defs>
  <path class="st1" d="M79.93,26.94h325.25c37.1,0,67.17,30.07,67.17,67.17h0c0,37.09-30.07,67.17-67.17,67.17H79.93c-37.1,0-67.17-30.07-67.17-67.17h0c0-37.09,30.07-67.17,67.17-67.17Z"/>
  <g class="st3">
    <path class="st0" d="M199.24,97.26c-.66,6.29-5.68,10.78-13.77,10.78-9.51,0-16.06-6.51-16.06-16.24s6.51-16.24,16.06-16.24c7.75,0,13.07,4.09,13.69,10.78h-6.03c-.75-3.26-3.56-5.28-7.61-5.28-5.41,0-9.2,3.87-9.2,10.74s3.74,10.74,9.2,10.74c4.27,0,6.87-2.02,7.7-5.28h6.03Z"/>
    <path class="st0" d="M225.77,75.56c8.93,0,15.4,6.47,15.4,16.24s-6.47,16.24-15.4,16.24-15.45-6.47-15.45-16.24,6.47-16.24,15.45-16.24ZM225.77,81.06c-4.93,0-8.54,3.96-8.54,10.74s3.61,10.74,8.54,10.74,8.54-3.96,8.54-10.74-3.65-10.74-8.54-10.74Z"/>
    <path class="st0" d="M268.1,76.09c6.65,0,11.27,2.91,11.27,8.54,0,4.44-2.99,7.61-8.36,8.4v.04c3.83.57,5.81,2.33,7.39,5.98l3.61,8.45h-7.44l-2.95-6.91c-1.54-3.61-3.26-4.58-6.87-4.58h-4.31v11.49h-6.69v-31.42h14.35ZM260.44,81.5v9.07h6.47c3.3,0,5.46-1.67,5.46-4.53s-2.02-4.53-5.46-4.53h-6.47Z"/>
    <path class="st0" d="M314.82,76.09v5.41h-14.87v7.08h13.11v5.41h-13.11v8.1h15.75v5.41h-22.44v-31.42h21.56Z"/>
  </g>
  <g>
    <path class="st2" d="M66.71,79.08v8.77c0,2.65,3.14,5.42,5.69,5.42h8.29v1.76h-8.55c-2.35,0-5.43,2.92-5.43,5.33v8.86h-1.82v-9.03c0-2.26-3.15-5.16-5.34-5.16h-8.55v-1.76h8.2c2.43,0,5.69-2.68,5.69-5.24v-8.95h1.82Z"/>
    <rect class="st2" x="74.63" y="55.55" width="18.49" height="4.62" transform="translate(6.23 123.84) rotate(-74.96)"/>
    <rect class="st2" x="90.98" y="65.14" width="18.49" height="4.62" transform="translate(-18.34 90.63) rotate(-45)"/>
    <rect class="st2" x="96.85" y="73.08" width="18.49" height="4.62" transform="translate(-23.48 63.15) rotate(-30)"/>
    <rect class="st2" x="100.68" y="82.23" width="18.49" height="4.62" transform="translate(-17.79 30.51) rotate(-14.63)"/>
    <rect class="st2" x="101.78" y="91.89" width="18.49" height="4.62"/>
    <rect class="st2" x="83.3" y="59.23" width="18.49" height="4.62" transform="translate(-5.94 113.04) rotate(-61.23)"/>
    <rect class="st2" x="107.61" y="94.69" width="4.62" height="18.49" transform="translate(-18.42 184.02) rotate(-75.36)"/>
    <rect class="st2" x="97.8" y="111.46" width="4.62" height="18.49" transform="translate(-56.13 107.23) rotate(-45.4)"/>
    <rect class="st2" x="89.97" y="117.78" width="4.62" height="18.49" transform="translate(-51.59 64.16) rotate(-30.4)"/>
    <rect class="st2" x="81.56" y="121.13" width="4.62" height="18.49" transform="translate(-30.94 26.21) rotate(-15.03)"/>
    <rect class="st2" x="103.87" y="103.63" width="4.62" height="18.49" transform="translate(-45.1 146.47) rotate(-59.27)"/>
  </g>
  <g>
    <circle class="st2" cx="395.2" cy="94.11" r="43.02"/>
    <path class="st1" d="M396.6,69.83v14.13c0,4.26,5.06,8.73,9.16,8.73h13.36v2.84h-13.77c-3.79,0-8.74,4.7-8.74,8.59v14.27h-2.94v-14.55c0-3.64-5.07-8.31-8.6-8.31h-13.77v-2.84h13.22c3.92,0,9.16-4.32,9.16-8.45v-14.41h2.94-.02Z"/>
  </g>
</svg>